<svg xmlns="http://www.w3.org/2000/svg" viewBox="0 0 400 300" role="img">
<rect width="400" height="300" fill="#f7e3d3"/>
<ellipse cx="200" cy="254" rx="120" ry="12" fill="#000" opacity=".07"/>
<rect x="110" y="90" width="180" height="110" rx="8" fill="#8b5a7a" stroke="#2b2825" stroke-width="4"/>
<path d="M110 120 H290 M110 170 H290" stroke="#c9a3bd" stroke-width="6"/>
<g stroke="#2b2825" stroke-width="3"><line x1="118" y1="200" x2="118" y2="222"/><line x1="130" y1="200" x2="130" y2="222"/><line x1="142" y1="200" x2="142" y2="222"/><line x1="154" y1="200" x2="154" y2="222"/><line x1="166" y1="200" x2="166" y2="222"/><line x1="178" y1="200" x2="178" y2="222"/><line x1="190" y1="200" x2="190" y2="222"/><line x1="202" y1="200" x2="202" y2="222"/><line x1="214" y1="200" x2="214" y2="222"/><line x1="226" y1="200" x2="226" y2="222"/><line x1="238" y1="200" x2="238" y2="222"/><line x1="250" y1="200" x2="250" y2="222"/><line x1="262" y1="200" x2="262" y2="222"/><line x1="274" y1="200" x2="274" y2="222"/><line x1="286" y1="200" x2="286" y2="222"/></g>
</svg>
